<svg xmlns="http://www.w3.org/2000/svg" style="display:none;">
  <symbol id="icon-twitter" viewBox="0 0 24 24">
    <path fill="currentColor"
      d="M22.46 5.92c-.8.36-1.67.61-2.58.72a4.48 4.48 0 0 0 1.97-2.48 8.94 8.94 0 0 1-2.83 1.08 4.48 4.48 0 0 0-7.63 4.09A12.72 12.72 0 0 1 3.11 4.6a4.48 4.48 0 0 0 1.39 5.98c-.73-.02-1.42-.22-2.02-.56v.06a4.48 4.48 0 0 0 3.6 4.4c-.34.09-.7.14-1.07.14-.26 0-.51-.02-.76-.07a4.48 4.48 0 0 0 4.18 3.11A9 9 0 0 1 2 19.54a12.7 12.7 0 0 0 6.88 2.02c8.26 0 12.78-6.84 12.78-12.77 0-.19 0-.39-.01-.58a9.1 9.1 0 0 0 2.24-2.32z"/>
  </symbol>
  <symbol id="icon-linkedin" viewBox="0 0 24 24">
    <path fill="currentColor"
      d="M19 0h-14c-2.76 0-5 2.24-5 5v14c0 2.76 2.24 5 5 5h14c2.76 0 5-2.24 5-5v-14c0-2.76-2.24-5-5-5zm-11 19h-3v-9h3v9zm-1.5-10.29c-.97 0-1.75-.79-1.75-1.75s.78-1.75 1.75-1.75 1.75.79 1.75 1.75-.78 1.75-1.75 1.75zm13.5 10.29h-3v-4.5c0-1.08-.02-2.47-1.5-2.47-1.5 0-1.73 1.17-1.73 2.39v4.58h-3v-9h2.89v1.23h.04c.4-.75 1.38-1.54 2.84-1.54 3.04 0 3.6 2 3.6 4.59v4.72z"/>
  </symbol>
  <symbol id="icon-github" viewBox="0 0 24 24">
    <path fill="currentColor"
      d="M12 2C6.48 2 2 6.58 2 12.26c0 4.48 2.87 8.28 6.84 9.63.5.09.68-.22.68-.48 0-.24-.01-.87-.01-1.7-2.78.62-3.37-1.36-3.37-1.36-.45-1.18-1.1-1.5-1.1-1.5-.9-.63.07-.62.07-.62 1 .07 1.53 1.04 1.53 1.04.89 1.56 2.34 1.11 2.91.85.09-.66.35-1.11.63-1.37-2.22-.26-4.56-1.14-4.56-5.07 0-1.12.39-2.03 1.03-2.75-.1-.26-.45-1.3.1-2.7 0 0 .84-.28 2.75 1.05a9.2 9.2 0 0 1 2.5-.34c.85 0 1.7.11 2.5.34 1.91-1.33 2.75-1.05 2.75-1.05.55 1.4.2 2.44.1 2.7.64.72 1.03 1.63 1.03 2.75 0 3.94-2.34 4.81-4.57 5.07.36.32.68.94.68 1.9 0 1.37-.01 2.47-.01 2.81 0 .27.18.58.69.48A10.01 10.01 0 0 0 22 12.26C22 6.58 17.52 2 12 2z"/>
  </symbol>
</svg>