<svg width="0" height="0" class="hidden">
  <symbol id="contact" style="transition: 0.3s fill=var(--svg-color), #000000" xmlns="http://www.w3.org/2000/svg" viewBox="0 0 24 24" preserveAspectRatio="none">
    <path d="M20,1H4A1,1,0,0,0,3,2V22a1,1,0,0,0,1,1H20a1,1,0,0,0,1-1V2A1,1,0,0,0,20,1ZM19,21H5V3H19ZM9,8.5a3,3,0,1,1,3,3A3,3,0,0,1,9,8.5Zm-2,9a5,5,0,0,1,10,0,1,1,0,0,1-2,0,3,3,0,0,0-6,0,1,1,0,0,1-2,0Z"></path>
  </symbol>
  <symbol version="1.1" id="project" style="transition: 0.3s fill=var(--svg-color), #000000" xmlns="http://www.w3.org/2000/svg" xmlns:xlink="http://www.w3.org/1999/xlink" x="0px" y="0px" xml:space="preserve" viewBox="0 0 122.88 100.53" preserveAspectRatio="none">
    <g>
      <path d="M56.9,50.27h9.08c1.33,0,2.55,0.54,3.42,1.42c0.88,0.88,1.42,2.09,1.42,3.42v19.14c0,1.33-0.54,2.54-1.42,3.42 c-0.88,0.88-2.09,1.42-3.42,1.42H56.9c-1.33,0-2.54-0.54-3.42-1.42c-0.88-0.88-1.42-2.09-1.42-3.42V55.12 c0-1.33,0.54-2.55,1.42-3.42C54.36,50.82,55.57,50.27,56.9,50.27L56.9,50.27z M6.97,13.96h31.5V4.94c0-1.36,0.55-2.59,1.45-3.49 C40.81,0.55,42.05,0,43.41,0h36.06c1.36,0,2.59,0.55,3.49,1.45c0.89,0.89,1.45,2.13,1.45,3.49v9.03h31.5 c1.92,0,3.66,0.78,4.93,2.05c1.26,1.26,2.05,3.01,2.05,4.93v72.62c0,1.92-0.78,3.66-2.05,4.93c-1.26,1.26-3.01,2.05-4.93,2.05H6.97 c-1.92,0-3.66-0.78-4.93-2.05C0.78,97.22,0,95.48,0,93.56V20.94c0-1.92,0.78-3.66,2.05-4.93C3.31,14.75,5.05,13.96,6.97,13.96 L6.97,13.96z M79.47,4.33H43.41c-0.17,0-0.32,0.07-0.43,0.18c-0.11,0.11-0.18,0.26-0.18,0.43v8.93h37.28V4.94 c0-0.17-0.07-0.32-0.18-0.43C79.79,4.39,79.64,4.33,79.47,4.33L79.47,4.33z M4.32,55.63c15.93,4.58,27.71,6.55,43.65,7.29v4.33 c-15.93-0.73-27.71-2.65-43.65-7.14v33.44c0,0.73,0.3,1.39,0.78,1.87c0.48,0.48,1.14,0.78,1.87,0.78h108.93 c0.73,0,1.39-0.3,1.87-0.78c0.48-0.48,0.78-1.14,0.78-1.87V60.12c-15.91,4.48-26.98,6.4-42.88,7.13v-4.33 c15.91-0.75,26.98-2.72,42.88-7.29V20.94c0-0.73-0.3-1.39-0.78-1.87c-0.48-0.48-1.14-0.78-1.87-0.78H6.97 c-0.73,0-1.39,0.3-1.87,0.78c-0.48,0.48-0.78,1.14-0.78,1.87V55.63L4.32,55.63z M65.98,54.6H56.9c-0.14,0-0.27,0.06-0.36,0.15 c-0.09,0.09-0.15,0.22-0.15,0.36v19.14c0,0.14,0.06,0.27,0.15,0.36c0.09,0.1,0.22,0.15,0.36,0.15h9.08c0.14,0,0.27-0.06,0.36-0.15 c0.09-0.09,0.15-0.22,0.15-0.36V55.12c0-0.14-0.06-0.27-0.15-0.36C66.25,54.66,66.12,54.6,65.98,54.6L65.98,54.6z"></path>
    </g>
  </symbol>
  <symbol id="home" style="transition: 0.3s fill=var(--svg-color), #000000" xmlns="http://www.w3.org/2000/svg" viewBox="0 0 24 24" preserveAspectRatio="none">
    <path d="M22 12.2039V13.725C22 17.6258 22 19.5763 20.8284 20.7881C19.6569 22 17.7712 22 14 22H10C6.22876 22 4.34315 22 3.17157 20.7881C2 19.5763 2 17.6258 2 13.725V12.2039C2 9.91549 2 8.77128 2.5192 7.82274C3.0384 6.87421 3.98695 6.28551 5.88403 5.10813L7.88403 3.86687C9.88939 2.62229 10.8921 2 12 2C13.1079 2 14.1106 2.62229 16.116 3.86687L18.116 5.10812C20.0131 6.28551 20.9616 6.87421 21.4808 7.82274" stroke="#000" stroke-width="1.5" stroke-linecap="round"></path>
    <path d="M15 18H9" stroke="#000" stroke-width="1.5" stroke-linecap="round"></path>
  </symbol>
  <symbol version="1.1" id="about" style="transition: 0.3s fill=var(--svg-color), #000000" xmlns="http://www.w3.org/2000/svg" xmlns:xlink="http://www.w3.org/1999/xlink" x="0px" y="0px" xml:space="preserve" viewBox="0 0 103.24 122.88" preserveAspectRatio="none">
    <g>
      <path d="M12.26,21.44C29.87,2.01,50.18-8.56,65.43,8.73c4,0.19,7.57,1.52,10.57,4.34c6.28,5.89,7.23,16.92,4.38,25.69 v7.63c1.94,1.27,3.18,3.66,3.76,6.39c0.37,1.76,0.46,3.69,0.29,5.54c-0.18,1.91-0.65,3.75-1.41,5.24c-1.09,2.15-2.75,3.66-5,3.99 c-2.2,2.34-4.35,4.84-6.28,7.26c-2.11,2.65-3.92,5.16-5.16,7.21c-0.96,1.59-0.66,2.63-0.31,3.81c0.17,0.59,0.35,1.2,0.48,1.88 c3.85,0.84,7.34,1.49,10.47,2.08c19.87,3.72,26.03,4.87,26.03,30.71c0,1.32-1.07,2.38-2.38,2.38H51.62H2.38 c-1.32,0-2.38-1.07-2.38-2.38C0,94.66,6.16,93.5,26.03,89.78c3.15-0.59,6.66-1.25,10.54-2.09c0.13-0.51,0.3-0.99,0.47-1.47 c0.4-1.14,0.8-2.28-0.37-4.2c-1.24-2.05-3.05-4.56-5.16-7.21c-1.92-2.42-4.08-4.92-6.28-7.26c-2.25-0.33-3.91-1.85-5-3.99 c-0.76-1.5-1.23-3.34-1.41-5.24c-0.18-1.85-0.08-3.78,0.29-5.54c0.57-2.72,1.8-5.09,3.72-6.37l-2.58-1.53 C19.56,37.23,21.57,23.95,12.26,21.44L12.26,21.44z M75.62,36.7c-0.43-3.15-1.25-5.79-2.42-8c-1.5-1.87-3.68-3.46-6.48-5.51 l-0.32-0.23c-0.59-0.44-1.19-0.85-1.79-1.23c-9.42,6.11-13.98,4.68-21.58,5.93c-6.89,1.13-12.48,3.69-15.41,8.37 c0,0.12,0,0.25,0,0.37v11.5c0,1.13-0.79,2.08-1.85,2.32c-0.96,0.29-1.65,1.73-2.02,3.53c-0.27,1.31-0.34,2.75-0.21,4.13 c0.13,1.32,0.43,2.56,0.93,3.53c0.44,0.87,1.01,1.46,1.67,1.47l0.14,0c0.69-0.01,1.32,0.27,1.76,0.74l0,0 c2.52,2.65,5.01,5.51,7.19,8.25c2.19,2.75,4.11,5.43,5.49,7.71c2.33,3.84,1.56,6.03,0.8,8.22c-0.22,0.63-0.44,1.27-0.44,1.87 c0,1.2-0.89,2.19-2.04,2.36c-4.59,1.03-8.59,1.78-12.13,2.44C10.64,97.5,5.18,98.53,4.79,118.12h46.83h46.83 C98.06,98.53,92.6,97.5,76.34,94.45c-3.58-0.67-7.64-1.43-12.31-2.48c-1.1-0.25-1.86-1.23-1.85-2.32h-0.01 c0-0.93-0.24-1.74-0.46-2.5c-0.65-2.23-1.23-4.21,0.81-7.58c1.38-2.28,3.3-4.96,5.49-7.71c2.18-2.74,4.67-5.6,7.19-8.25 c0.51-0.53,1.2-0.78,1.88-0.73l0.01,0c0.66-0.01,1.23-0.6,1.67-1.47c0.49-0.97,0.8-2.21,0.93-3.53c0.13-1.38,0.06-2.82-0.21-4.13 c-0.38-1.83-1.09-3.29-2.07-3.54c-1.08-0.27-1.8-1.24-1.8-2.31h0V36.7L75.62,36.7z"></path>
    </g>
  </symbol>
  <symbol id="logo" style="transition: 0.3s fill=var(--svg-color), #000000" version="1.0" xmlns="http://www.w3.org/2000/svg" preserveAspectRatio="xMidYMid meet" viewBox="0 0 1024.000000 1024.000000" preserveAspectRatio="none">
    <g transform="translate(0.000000,1024.000000) scale(0.100000,-0.100000)" fill="#000000" stroke="none">
      <path d="M7708 6888 c-4 -10 -23 -17 -55 -20 -7 -1 -13 -5 -13 -9 0 -3 -21
-10 -47 -14 -26 -4 -65 -15 -88 -25 -22 -9 -51 -18 -64 -18 -13 -1 -27 -5 -30
-9 -3 -4 -14 -9 -23 -11 -9 -1 -30 -9 -45 -17 -15 -8 -33 -15 -39 -15 -6 0
-17 -7 -24 -15 -7 -8 -20 -15 -29 -15 -26 0 -126 -68 -192 -131 -16 -15 -30
-25 -32 -23 -5 5 -153 -138 -151 -146 2 -6 -136 -160 -236 -262 -100 -103
-222 -235 -257 -278 -15 -19 -46 -54 -68 -77 -22 -23 -44 -48 -50 -55 -52 -70
-264 -269 -299 -282 -19 -7 -19 -6 -2 13 11 12 15 25 10 32 -4 7 -7 204 -7
438 1 234 -3 408 -7 386 -7 -37 -7 -36 -9 23 0 34 -5 62 -11 62 -5 0 -10 8
-10 19 0 10 -7 24 -15 31 -8 7 -13 16 -10 20 2 4 -4 15 -15 25 -11 10 -20 23
-20 28 0 11 -91 96 -102 97 -4 0 -31 15 -60 34 -29 18 -70 39 -90 45 -69 23
-191 32 -260 21 -33 -5 -48 -4 -48 4 0 6 -4 4 -10 -4 -5 -8 -12 -11 -16 -7 -4
4 -13 2 -20 -3 -6 -6 -29 -12 -50 -14 -21 -1 -40 -8 -42 -14 -2 -7 -10 -12
-18 -12 -8 0 -14 -5 -14 -11 0 -5 -4 -8 -8 -5 -11 6 -100 -36 -129 -60 -38
-33 -57 -49 -83 -65 -31 -21 -75 -59 -67 -59 3 0 -12 -17 -33 -38 -21 -22 -41
-49 -44 -60 -4 -12 -12 -22 -17 -22 -5 0 -9 -7 -9 -16 0 -8 -4 -13 -9 -10 -4
3 -13 -6 -19 -19 -7 -14 -16 -25 -22 -25 -6 0 -9 -4 -6 -9 3 -5 0 -11 -8 -14
-8 -3 -21 -18 -29 -34 -8 -15 -29 -55 -47 -88 -17 -33 -38 -67 -45 -75 -8 -8
-37 -60 -65 -115 -29 -55 -56 -104 -61 -109 -5 -6 -9 -17 -9 -25 0 -8 -11 -29
-25 -47 -14 -18 -25 -38 -25 -44 0 -6 -10 -27 -23 -48 -32 -51 -68 -131 -70
-154 -2 -23 -26 -20 -38 5 -5 9 -13 25 -18 35 -90 173 -125 245 -127 259 -2 9
-8 27 -13 40 -6 13 -15 33 -20 46 -45 107 -76 176 -97 214 -13 25 -24 51 -24
56 0 6 -11 25 -25 43 -14 18 -25 38 -25 44 0 6 -16 41 -35 78 -46 87 -115 199
-115 188 0 -5 -9 -1 -20 9 -11 10 -20 24 -20 32 0 7 -7 13 -15 13 -8 0 -15 5
-15 10 0 6 -4 10 -9 10 -5 0 -26 16 -46 35 -21 19 -41 33 -45 32 -5 -1 -16 7
-25 18 -9 11 -13 14 -9 6 4 -9 2 -12 -7 -8 -8 3 -33 11 -56 18 -24 6 -43 15
-43 19 0 10 -47 21 -92 22 -18 0 -38 5 -44 9 -14 12 -264 5 -273 -7 -3 -5 -19
-11 -36 -13 -16 -1 -32 -6 -35 -10 -3 -3 -24 -19 -48 -34 -84 -54 -126 -109
-170 -219 -34 -85 -37 -190 -37 -1403 l0 -1200 22 -41 c28 -52 76 -99 130
-125 37 -18 58 -20 136 -17 87 3 96 6 157 43 69 43 121 103 142 163 10 29 13
244 14 1007 2 988 5 1100 40 1135 18 18 36 8 76 -41 34 -42 134 -262 299 -659
109 -260 213 -477 268 -559 48 -70 84 -99 163 -134 72 -32 172 -31 270 2 115
39 154 95 298 436 218 517 263 611 361 757 122 181 211 293 233 293 50 0 50 5
56 -1145 5 -892 8 -1072 20 -1105 16 -43 100 -135 123 -135 8 0 20 -6 26 -14
7 -8 23 -13 37 -10 14 3 23 1 20 -5 -3 -5 4 -11 17 -15 34 -9 99 -7 93 3 -3 5
16 12 42 16 67 9 127 41 160 83 59 77 57 59 62 569 5 457 6 473 25 487 27 21
102 19 150 -3 68 -31 165 -145 403 -471 34 -47 90 -123 124 -169 59 -79 100
-136 123 -173 47 -73 217 -298 280 -369 39 -44 112 -96 148 -105 15 -3 27 -11
27 -16 0 -6 6 -6 14 1 11 9 15 9 19 -1 4 -10 8 -10 16 2 7 9 11 10 11 3 0 -12
7 -13 63 -14 15 -1 27 -6 27 -13 0 -6 5 -4 10 4 7 11 12 12 21 3 9 -9 16 -9
31 0 13 9 21 9 26 1 4 -6 14 -11 22 -12 8 0 60 -2 115 -5 55 -3 122 -1 149 4
70 13 186 68 186 88 0 9 -23 41 -51 71 -29 30 -86 98 -127 150 -42 52 -94 114
-116 138 -22 23 -36 42 -31 42 6 0 5 4 -1 8 -6 4 -24 27 -41 52 -17 25 -43 56
-57 69 -14 14 -26 30 -26 37 0 6 -11 22 -25 35 -14 13 -32 38 -41 55 -8 17
-26 37 -39 44 -14 7 -25 17 -25 22 0 4 -13 21 -30 36 -16 16 -30 33 -30 38 0
5 -8 17 -17 26 -10 8 -27 28 -38 43 -11 15 -35 43 -52 62 -18 19 -33 37 -33
40 0 3 -10 16 -22 29 -13 12 -58 60 -100 106 -142 152 -191 201 -333 327 -11
9 -58 49 -105 87 -47 38 -90 73 -96 79 -22 21 -9 48 45 92 78 62 331 304 331
315 0 5 17 26 38 46 20 20 45 49 54 63 9 14 34 46 55 71 21 24 48 57 61 73 12
17 52 68 88 115 37 47 92 120 123 164 31 43 72 100 91 126 19 26 84 115 143
196 159 220 180 246 235 296 53 47 66 88 29 88 -10 0 -26 4 -35 9 -33 16 -70
21 -74 9z"></path>
      <path d="M4260 5609 c0 -5 5 -7 10 -4 6 3 10 8 10 11 0 2 -4 4 -10 4 -5 0 -10
-5 -10 -11z"></path>
      <path d="M7428 3513 c6 -2 18 -2 25 0 6 3 1 5 -13 5 -14 0 -19 -2 -12 -5z"></path>
    </g>
  </symbol>
  <symbol version="1.1" id="info" style="transition: 0.3s fill=var(--svg-color), #000000" xmlns="http://www.w3.org/2000/svg" xmlns:xlink="http://www.w3.org/1999/xlink" x="0px" y="0px" enable-background="new 0 0 122.88 122.881" xml:space="preserve" viewBox="0 0 122.88 122.881" preserveAspectRatio="none">
    <g>
      <path d="M44.541,97.197V86.404c0-1.645,1.333-2.977,2.978-2.977h1.438V65.344h-1.701c-1.645,0-2.979-1.334-2.979-2.979v-11.48 c0-1.645,1.334-2.978,2.979-2.978h21.175c2.018,0,3.538,0.855,4.565,2.558c0.735,1.221,1.103,2.849,1.103,4.88v28.082h1.526 c1.645,0,2.979,1.332,2.979,2.977v10.793c0,1.645-1.334,2.979-2.979,2.979H47.519C45.874,100.176,44.541,98.842,44.541,97.197 L44.541,97.197z M61.44,5.956c-3.841,0-7.565,0.361-11.169,1.083c-3.61,0.722-7.09,1.799-10.439,3.229l0.002,0.004 c-3.412,1.467-6.585,3.181-9.515,5.147c-2.938,1.971-5.661,4.21-8.165,6.724l-0.012,0.011l0,0 c-2.513,2.504-4.752,5.227-6.724,8.165c-1.966,2.93-3.68,6.104-5.147,9.515c-0.021,0.048-0.042,0.095-0.065,0.142 c-1.4,3.304-2.456,6.737-3.168,10.295c-0.721,3.604-1.082,7.328-1.082,11.168c0,3.842,0.361,7.564,1.082,11.17 c0.723,3.609,1.799,7.09,3.229,10.438h0.004c1.467,3.41,3.182,6.584,5.147,9.514c1.971,2.938,4.21,5.662,6.724,8.166l0.011,0.012 l0-0.002c2.504,2.514,5.227,4.754,8.165,6.725c2.93,1.967,6.104,3.68,9.515,5.146c0.048,0.021,0.095,0.043,0.141,0.066 c3.305,1.398,6.737,2.455,10.296,3.168c3.604,0.721,7.328,1.082,11.169,1.082s7.564-0.361,11.169-1.082 c3.609-0.723,7.09-1.799,10.438-3.229l-0.002-0.006c3.412-1.467,6.586-3.18,9.516-5.146c2.938-1.971,5.66-4.211,8.164-6.725 l0.013-0.01h-0.001c2.514-2.504,4.753-5.229,6.724-8.166c1.966-2.93,3.681-6.104,5.147-9.514c0.021-0.049,0.043-0.096,0.065-0.143 c1.399-3.305,2.456-6.736,3.168-10.295c0.722-3.605,1.083-7.328,1.083-11.17c0-3.84-0.361-7.564-1.083-11.168 c-0.723-3.61-1.799-7.09-3.229-10.438l-0.004,0.001c-1.467-3.412-3.182-6.585-5.147-9.515c-1.971-2.938-4.21-5.661-6.724-8.165 l-0.011-0.012l-0.001,0c-2.504-2.514-5.227-4.752-8.164-6.724c-2.93-1.966-6.104-3.681-9.516-5.147 c-0.048-0.021-0.095-0.043-0.141-0.065c-3.305-1.399-6.737-2.456-10.296-3.168C69.005,6.317,65.281,5.956,61.44,5.956L61.44,5.956z M49.108,1.199C53.1,0.4,57.212,0,61.44,0s8.34,0.4,12.332,1.199c3.927,0.786,7.748,1.967,11.461,3.541 c0.055,0.02,0.108,0.042,0.163,0.064c3.7,1.592,7.191,3.483,10.469,5.683c3.267,2.192,6.291,4.678,9.066,7.462 c2.784,2.775,5.27,5.8,7.462,9.067c2.199,3.276,4.091,6.768,5.683,10.468l-0.005,0.002l0.005,0.01 c1.606,3.76,2.809,7.631,3.605,11.612c0.799,3.992,1.198,8.104,1.198,12.332c0,4.229-0.399,8.342-1.198,12.332 c-0.786,3.928-1.967,7.748-3.541,11.461c-0.02,0.055-0.041,0.109-0.064,0.164c-1.592,3.699-3.483,7.191-5.683,10.469 c-2.192,3.266-4.678,6.291-7.462,9.066c-2.775,2.783-5.8,5.27-9.066,7.461c-3.277,2.199-6.769,4.092-10.469,5.684l-0.002-0.004 l-0.011,0.004c-3.76,1.605-7.631,2.809-11.611,3.605c-3.992,0.799-8.104,1.199-12.332,1.199s-8.34-0.4-12.332-1.199 c-3.927-0.787-7.749-1.967-11.461-3.541c-0.055-0.02-0.109-0.041-0.163-0.064c-3.701-1.592-7.192-3.484-10.469-5.684 c-3.267-2.191-6.291-4.678-9.066-7.461c-2.784-2.775-5.27-5.801-7.462-9.066c-2.199-3.277-4.091-6.77-5.683-10.469l0.004-0.002 l-0.004-0.01c-1.607-3.76-2.809-7.633-3.605-11.613C0.4,69.781,0,65.668,0,61.439c0-4.228,0.4-8.34,1.199-12.332 c0.786-3.927,1.966-7.748,3.541-11.46c0.02-0.055,0.041-0.109,0.064-0.164c1.592-3.7,3.483-7.192,5.683-10.468 c2.192-3.267,4.678-6.292,7.462-9.067c2.775-2.784,5.799-5.27,9.066-7.462c3.277-2.199,6.768-4.091,10.469-5.683l0.002,0.004 l0.01-0.004C41.256,3.197,45.128,1.995,49.108,1.199L49.108,1.199z M50.497,89.328v4.891h22.149v-4.891 c-0.491-0.08-0.973-0.252-1.444-0.514c-0.498-0.273-0.967-0.635-1.412-1.078c-0.439-0.439-0.801-0.916-1.081-1.43 c-0.375-0.686-0.566-1.385-0.566-2.094V55.346c0-0.659-0.04-1.153-0.12-1.482H50.234v5.543c0.599,0.059,1.181,0.251,1.743,0.574 l-0.005,0.009l0.005,0.003c0.423,0.244,0.832,0.564,1.224,0.96c0.065,0.06,0.13,0.123,0.191,0.19 c0.426,0.465,0.762,0.928,1.001,1.389c0.345,0.662,0.521,1.338,0.521,2.027v19.654c0,0.619-0.14,1.227-0.414,1.822 c-0.032,0.078-0.068,0.156-0.108,0.232c-0.246,0.473-0.588,0.938-1.022,1.398c-0.441,0.469-0.907,0.844-1.401,1.125 C51.488,89.064,50.999,89.244,50.497,89.328L50.497,89.328z M61.484,44.549c-1.631,0-3.141-0.245-4.533-0.735 c-1.441-0.509-2.722-1.273-3.844-2.296c-0.053-0.047-0.103-0.097-0.151-0.147c-1.085-1.014-1.903-2.184-2.457-3.508 c-0.571-1.365-0.854-2.86-0.854-4.48c0-1.616,0.283-3.119,0.855-4.501c0.585-1.416,1.453-2.654,2.607-3.708l0.06-0.053 c1.098-1,2.355-1.754,3.772-2.264c1.407-0.507,2.922-0.759,4.545-0.759c1.662,0,3.194,0.249,4.599,0.747 c1.453,0.516,2.741,1.292,3.864,2.329l0.001-0.001c1.154,1.054,2.022,2.292,2.608,3.708c0.571,1.382,0.854,2.885,0.854,4.501 c0,1.621-0.282,3.116-0.854,4.481c-0.58,1.386-1.449,2.604-2.613,3.65l0.005,0.005c-1.12,1.021-2.412,1.786-3.877,2.296 C64.66,44.305,63.132,44.549,61.484,44.549L61.484,44.549z M58.929,38.207c0.731,0.258,1.583,0.387,2.556,0.387 c1.014,0,1.892-0.128,2.633-0.387c0.688-0.239,1.298-0.601,1.829-1.085l0.005,0.005l0.019-0.017 c0.489-0.438,0.854-0.947,1.097-1.526c0.26-0.622,0.389-1.356,0.389-2.201c0-0.865-0.129-1.614-0.39-2.245 c-0.24-0.582-0.613-1.105-1.119-1.567l0.002-0.001l-0.025-0.022c-0.522-0.485-1.128-0.851-1.817-1.095 c-0.748-0.266-1.622-0.398-2.621-0.398c-0.979,0-1.828,0.129-2.544,0.387c-0.649,0.233-1.235,0.587-1.757,1.06 c-0.024,0.024-0.048,0.047-0.074,0.07c-0.506,0.462-0.878,0.985-1.119,1.567c-0.26,0.63-0.39,1.38-0.39,2.244 c0,0.844,0.129,1.579,0.389,2.2c0.223,0.533,0.549,1.006,0.98,1.419c0.047,0.038,0.094,0.078,0.139,0.119 C57.64,37.604,58.246,37.966,58.929,38.207L58.929,38.207z"></path>
    </g>
  </symbol>
  <symbol id="switch" style="transition: 0.3s fill=var(--svg-color), #000000" version="1.1" xmlns="http://www.w3.org/2000/svg" viewBox="-5.5 0 32 32" preserveAspectRatio="none">
    <path d="M11.875 6v2.469c0 0.844-0.375 1.25-1.156 1.25s-1.156-0.406-1.156-1.25v-2.469c0-0.813 0.375-1.219 1.156-1.219s1.156 0.406 1.156 1.219zM14.219 9.25l1.438-2.031c0.469-0.625 1.063-0.75 1.656-0.313s0.656 1 0.188 1.688l-1.438 2c-0.469 0.688-1.031 0.75-1.656 0.313-0.594-0.438-0.656-0.969-0.188-1.656zM5.781 7.25l1.469 2c0.469 0.688 0.406 1.219-0.219 1.656-0.594 0.469-1.156 0.375-1.625-0.313l-1.469-2c-0.469-0.688-0.406-1.219 0.219-1.656 0.594-0.469 1.156-0.375 1.625 0.313zM10.719 11.125c2.688 0 4.875 2.188 4.875 4.875 0 2.656-2.188 4.813-4.875 4.813s-4.875-2.156-4.875-4.813c0-2.688 2.188-4.875 4.875-4.875zM1.594 11.813l2.375 0.75c0.781 0.25 1.063 0.719 0.813 1.469-0.219 0.75-0.75 0.969-1.563 0.719l-2.313-0.75c-0.781-0.25-1.063-0.75-0.844-1.5 0.25-0.719 0.75-0.938 1.531-0.688zM17.5 12.563l2.344-0.75c0.813-0.25 1.313-0.031 1.531 0.688 0.25 0.75-0.031 1.25-0.844 1.469l-2.313 0.781c-0.781 0.25-1.281 0.031-1.531-0.719-0.219-0.75 0.031-1.219 0.813-1.469zM10.719 18.688c1.5 0 2.719-1.219 2.719-2.688 0-1.5-1.219-2.719-2.719-2.719s-2.688 1.219-2.688 2.719c0 1.469 1.188 2.688 2.688 2.688zM0.906 17.969l2.344-0.75c0.781-0.25 1.313-0.063 1.531 0.688 0.25 0.75-0.031 1.219-0.813 1.469l-2.375 0.781c-0.781 0.25-1.281 0.031-1.531-0.719-0.219-0.75 0.063-1.219 0.844-1.469zM18.219 17.219l2.344 0.75c0.781 0.25 1.063 0.719 0.813 1.469-0.219 0.75-0.719 0.969-1.531 0.719l-2.344-0.781c-0.813-0.25-1.031-0.719-0.813-1.469 0.25-0.75 0.75-0.938 1.531-0.688zM3.938 23.344l1.469-1.969c0.469-0.688 1.031-0.781 1.625-0.313 0.625 0.438 0.688 0.969 0.219 1.656l-1.469 1.969c-0.469 0.688-1.031 0.813-1.656 0.375-0.594-0.438-0.656-1.031-0.188-1.719zM16.063 21.375l1.438 1.969c0.469 0.688 0.406 1.281-0.188 1.719s-1.188 0.281-1.656-0.344l-1.438-2c-0.469-0.688-0.406-1.219 0.188-1.656 0.625-0.438 1.188-0.375 1.656 0.313zM11.875 23.469v2.469c0 0.844-0.375 1.25-1.156 1.25s-1.156-0.406-1.156-1.25v-2.469c0-0.844 0.375-1.25 1.156-1.25s1.156 0.406 1.156 1.25z"></path>
  </symbol>
</svg>